<svg width="1290" height="2796" viewBox="0 0 1290 2796" fill="none" xmlns="http://www.w3.org/2000/svg">
<rect width="1290" height="2796" fill="black" fill-opacity="0.7"></rect>
<rect x="24" y="2034" width="1242" height="660" rx="46" fill="white"></rect>
<rect x="585" y="2082" width="120" height="12" rx="6" fill="black"></rect>
<rect x="101" y="2197" width="60" height="60" rx="30" stroke="black" stroke-width="6"></rect>
<path d="M132.19 2234.11C131.997 2234.88 131.823 2235.62 131.668 2236.31C131.552 2237.01 131.494 2237.69 131.494 2238.34C131.494 2239.43 131.765 2240.34 132.306 2241.07C132.886 2241.77 133.969 2242.11 135.554 2242.11C136.211 2242.11 136.849 2242.08 137.468 2242C138.087 2241.88 138.667 2241.75 139.208 2241.59L138.918 2245.65C138.647 2245.73 138.145 2245.85 137.41 2246C136.714 2246.12 135.709 2246.17 134.394 2246.17C132.963 2246.17 131.745 2245.98 130.74 2245.59C129.773 2245.21 128.981 2244.69 128.362 2244.03C127.782 2243.37 127.357 2242.6 127.086 2241.71C126.854 2240.82 126.738 2239.85 126.738 2238.81C126.738 2238 126.796 2237.16 126.912 2236.31C127.067 2235.46 127.241 2234.59 127.434 2233.7L130.044 2223.09H122.272L123.2 2219.09H135.728L132.19 2234.11ZM133.64 2214.91C132.635 2214.91 131.803 2214.62 131.146 2214.04C130.489 2213.46 130.16 2212.61 130.16 2211.49C130.16 2210.14 130.585 2209.07 131.436 2208.3C132.287 2207.53 133.234 2207.14 134.278 2207.14C135.283 2207.14 136.115 2207.45 136.772 2208.07C137.468 2208.69 137.816 2209.56 137.816 2210.68C137.816 2211.34 137.681 2211.92 137.41 2212.42C137.178 2212.92 136.849 2213.37 136.424 2213.75C136.037 2214.14 135.593 2214.43 135.09 2214.62C134.626 2214.82 134.143 2214.91 133.64 2214.91Z" fill="black"></path>
<path d="M242.891 2244.5H237.617V2215.23H220.602V2244.5H215.352V2210.68H242.891V2244.5ZM261.861 2244.99C259.455 2244.99 257.377 2244.48 255.627 2243.45C253.892 2242.4 252.556 2240.92 251.619 2239.02C250.697 2237.09 250.236 2234.84 250.236 2232.24V2232.22C250.236 2229.66 250.705 2227.41 251.642 2225.49C252.58 2223.55 253.9 2222.05 255.603 2220.99C257.306 2219.91 259.306 2219.38 261.603 2219.38C263.916 2219.38 265.9 2219.89 267.556 2220.92C269.228 2221.94 270.517 2223.38 271.423 2225.26C272.33 2227.12 272.783 2229.28 272.783 2231.75V2233.46H252.744V2229.88H270.322L267.814 2233.23V2231.26C267.814 2229.52 267.548 2228.09 267.017 2226.95C266.502 2225.79 265.775 2224.93 264.838 2224.37C263.916 2223.8 262.845 2223.52 261.627 2223.52C260.423 2223.52 259.345 2223.82 258.392 2224.41C257.439 2225.01 256.689 2225.88 256.142 2227.04C255.595 2228.18 255.322 2229.59 255.322 2231.26V2233.23C255.322 2234.82 255.588 2236.19 256.119 2237.33C256.666 2238.45 257.439 2239.32 258.439 2239.93C259.439 2240.52 260.619 2240.82 261.978 2240.82C262.978 2240.82 263.861 2240.67 264.627 2240.38C265.392 2240.06 266.025 2239.66 266.525 2239.16C267.041 2238.64 267.4 2238.07 267.603 2237.45L267.673 2237.26H272.502L272.455 2237.52C272.252 2238.48 271.869 2239.41 271.306 2240.3C270.744 2241.2 270.009 2242 269.103 2242.72C268.213 2243.42 267.158 2243.98 265.939 2244.38C264.72 2244.79 263.361 2244.99 261.861 2244.99ZM279.495 2252.7V2219.84H284.605V2224.06H284.722C285.206 2223.09 285.823 2222.26 286.573 2221.55C287.339 2220.85 288.214 2220.31 289.198 2219.94C290.183 2219.56 291.261 2219.38 292.433 2219.38C294.527 2219.38 296.347 2219.9 297.894 2220.95C299.441 2221.98 300.636 2223.45 301.48 2225.38C302.323 2227.28 302.745 2229.55 302.745 2232.17V2232.2C302.745 2234.82 302.316 2237.09 301.456 2238.99C300.613 2240.9 299.425 2242.38 297.894 2243.42C296.363 2244.47 294.566 2244.99 292.503 2244.99C291.347 2244.99 290.261 2244.8 289.245 2244.43C288.245 2244.05 287.363 2243.52 286.597 2242.84C285.831 2242.13 285.198 2241.3 284.698 2240.35H284.605V2252.7H279.495ZM291.097 2240.61C292.425 2240.61 293.573 2240.27 294.542 2239.6C295.511 2238.91 296.253 2237.94 296.769 2236.67C297.284 2235.41 297.542 2233.91 297.542 2232.2V2232.17C297.542 2230.42 297.284 2228.91 296.769 2227.65C296.253 2226.38 295.511 2225.41 294.542 2224.74C293.573 2224.07 292.425 2223.73 291.097 2223.73C289.816 2223.73 288.683 2224.09 287.698 2224.79C286.714 2225.48 285.941 2226.45 285.378 2227.72C284.831 2228.97 284.558 2230.45 284.558 2232.17V2232.2C284.558 2233.9 284.839 2235.38 285.402 2236.65C285.964 2237.9 286.73 2238.88 287.698 2239.58C288.683 2240.27 289.816 2240.61 291.097 2240.61ZM320.005 2244.99C317.598 2244.99 315.52 2244.48 313.77 2243.45C312.036 2242.4 310.7 2240.92 309.762 2239.02C308.841 2237.09 308.38 2234.84 308.38 2232.24V2232.22C308.38 2229.66 308.848 2227.41 309.786 2225.49C310.723 2223.55 312.044 2222.05 313.747 2220.99C315.45 2219.91 317.45 2219.38 319.747 2219.38C322.059 2219.38 324.044 2219.89 325.7 2220.92C327.372 2221.94 328.661 2223.38 329.567 2225.26C330.473 2227.12 330.927 2229.28 330.927 2231.75V2233.46H310.887V2229.88H328.466L325.958 2233.23V2231.26C325.958 2229.52 325.692 2228.09 325.161 2226.95C324.645 2225.79 323.919 2224.93 322.981 2224.37C322.059 2223.8 320.989 2223.52 319.77 2223.52C318.567 2223.52 317.489 2223.82 316.536 2224.41C315.583 2225.01 314.833 2225.88 314.286 2227.04C313.739 2228.18 313.466 2229.59 313.466 2231.26V2233.23C313.466 2234.82 313.731 2236.19 314.262 2237.33C314.809 2238.45 315.583 2239.32 316.583 2239.93C317.583 2240.52 318.762 2240.82 320.122 2240.82C321.122 2240.82 322.005 2240.67 322.77 2240.38C323.536 2240.06 324.169 2239.66 324.669 2239.16C325.184 2238.64 325.544 2238.07 325.747 2237.45L325.817 2237.26H330.645L330.598 2237.52C330.395 2238.48 330.012 2239.41 329.45 2240.3C328.887 2241.2 328.153 2242 327.247 2242.72C326.356 2243.42 325.302 2243.98 324.083 2244.38C322.864 2244.79 321.505 2244.99 320.005 2244.99ZM353.998 2223.88H342.748V2244.5H337.662V2219.84H353.998V2223.88ZM366.078 2233.44C365.922 2235.73 365.586 2237.73 365.07 2239.44C364.57 2241.12 363.789 2242.43 362.727 2243.35C361.68 2244.27 360.227 2244.73 358.367 2244.73C357.898 2244.73 357.492 2244.7 357.148 2244.64C356.805 2244.59 356.539 2244.54 356.352 2244.48V2240.05C356.477 2240.08 356.648 2240.11 356.867 2240.14C357.086 2240.17 357.352 2240.19 357.664 2240.19C358.523 2240.19 359.203 2239.91 359.703 2239.37C360.203 2238.82 360.578 2238.02 360.828 2236.98C361.094 2235.93 361.281 2234.66 361.391 2233.16L362.258 2219.84H380.328V2244.5H375.219V2223.9H366.758L366.078 2233.44ZM402.298 2244.5V2236.04H398.337L392.384 2244.5H386.595L393.322 2235.2C391.619 2234.66 390.267 2233.79 389.267 2232.57C388.283 2231.35 387.791 2229.89 387.791 2228.19V2228.14C387.791 2226.44 388.181 2224.97 388.962 2223.73C389.759 2222.48 390.869 2221.52 392.291 2220.85C393.728 2220.18 395.4 2219.84 397.306 2219.84H407.337V2244.5H402.298ZM397.587 2232.12H402.298V2223.85H397.587C396.15 2223.85 395.017 2224.23 394.189 2225C393.361 2225.75 392.947 2226.79 392.947 2228.12V2228.16C392.947 2229.32 393.361 2230.27 394.189 2231.02C395.017 2231.76 396.15 2232.12 397.587 2232.12ZM431.347 2244.5V2233.79H420.261V2244.5H415.175V2219.84H420.261V2229.76H431.347V2219.84H436.433V2244.5H431.347ZM447.153 2252.73C446.669 2252.73 446.184 2252.7 445.7 2252.66C445.216 2252.61 444.817 2252.55 444.505 2252.49V2248.53C444.692 2248.56 444.927 2248.59 445.208 2248.62C445.505 2248.67 445.825 2248.7 446.169 2248.7C447.372 2248.7 448.325 2248.49 449.028 2248.09C449.747 2247.68 450.309 2246.88 450.716 2245.7L451.137 2244.52L442.161 2219.84H447.669L454.208 2241.01L453.317 2239.91H454.559L453.669 2241.01L460.231 2219.84H465.598L456.411 2245.62C455.802 2247.33 455.083 2248.7 454.255 2249.75C453.442 2250.8 452.458 2251.55 451.302 2252.02C450.161 2252.49 448.778 2252.73 447.153 2252.73ZM490.1 2219.84V2223.9H482.389V2244.5H477.303V2223.9H469.592V2219.84H490.1ZM496.203 2244.5V2219.84H501.242V2237.07H503.703L500.188 2238.99L512.773 2219.84H517.789V2244.5H512.727V2227.2H510.289L513.781 2225.28L501.195 2244.5H496.203ZM540.12 2251.18H535.433V2240.45H537.425C538.331 2239.87 539.003 2238.91 539.441 2237.56C539.894 2236.22 540.175 2234.72 540.284 2233.06L541.175 2219.84H559.175V2240.45H562.995V2251.18H558.308V2244.5H540.12V2251.18ZM554.066 2240.45V2223.92H545.558L544.878 2233.27C544.769 2234.74 544.558 2236.09 544.245 2237.3C543.933 2238.51 543.48 2239.52 542.886 2240.33V2240.45H554.066ZM579.411 2244.99C577.052 2244.99 574.989 2244.48 573.223 2243.45C571.473 2242.4 570.114 2240.92 569.145 2239.02C568.177 2237.09 567.692 2234.81 567.692 2232.17V2232.12C567.692 2229.5 568.177 2227.23 569.145 2225.33C570.13 2223.42 571.497 2221.95 573.247 2220.92C575.013 2219.89 577.059 2219.38 579.388 2219.38C581.731 2219.38 583.778 2219.89 585.528 2220.92C587.294 2221.94 588.661 2223.4 589.63 2225.3C590.614 2227.21 591.106 2229.48 591.106 2232.12V2232.17C591.106 2234.83 590.614 2237.11 589.63 2239.02C588.661 2240.92 587.302 2242.4 585.552 2243.45C583.802 2244.48 581.755 2244.99 579.411 2244.99ZM579.434 2240.73C580.747 2240.73 581.888 2240.39 582.856 2239.72C583.825 2239.05 584.575 2238.08 585.106 2236.81C585.638 2235.53 585.903 2233.98 585.903 2232.17V2232.12C585.903 2230.33 585.638 2228.8 585.106 2227.53C584.575 2226.25 583.817 2225.28 582.833 2224.62C581.848 2223.95 580.7 2223.62 579.388 2223.62C578.091 2223.62 576.95 2223.95 575.966 2224.62C574.997 2225.3 574.239 2226.27 573.692 2227.53C573.145 2228.8 572.872 2230.33 572.872 2232.12V2232.17C572.872 2233.98 573.138 2235.53 573.669 2236.81C574.216 2238.08 574.981 2239.05 575.966 2239.72C576.95 2240.39 578.106 2240.73 579.434 2240.73ZM603.842 2233.51H602.952V2244.5H597.866V2219.84H602.952V2229.99H603.842L612.772 2219.84H618.748L608.131 2231.68V2231.14L619.17 2244.5H612.889L603.842 2233.51ZM627.266 2252.73C626.781 2252.73 626.297 2252.7 625.812 2252.66C625.328 2252.61 624.93 2252.55 624.617 2252.49V2248.53C624.805 2248.56 625.039 2248.59 625.32 2248.62C625.617 2248.67 625.938 2248.7 626.281 2248.7C627.484 2248.7 628.438 2248.49 629.141 2248.09C629.859 2247.68 630.422 2246.88 630.828 2245.7L631.25 2244.52L622.273 2219.84H627.781L634.32 2241.01L633.43 2239.91H634.672L633.781 2241.01L640.344 2219.84H645.711L636.523 2245.62C635.914 2247.33 635.195 2248.7 634.367 2249.75C633.555 2250.8 632.57 2251.55 631.414 2252.02C630.273 2252.49 628.891 2252.73 627.266 2252.73ZM656.408 2244.5H651.462V2219.84H657.884L665.736 2237.89H665.923L673.822 2219.84H680.08V2244.5H675.134V2227.39H674.947L667.611 2243.54H663.908L656.572 2227.39H656.408V2244.5ZM698.417 2244.99C696.011 2244.99 693.933 2244.48 692.183 2243.45C690.448 2242.4 689.112 2240.92 688.175 2239.02C687.253 2237.09 686.792 2234.84 686.792 2232.24V2232.22C686.792 2229.66 687.261 2227.41 688.198 2225.49C689.136 2223.55 690.456 2222.05 692.159 2220.99C693.862 2219.91 695.862 2219.38 698.159 2219.38C700.472 2219.38 702.456 2219.89 704.112 2220.92C705.784 2221.94 707.073 2223.38 707.98 2225.26C708.886 2227.12 709.339 2229.28 709.339 2231.75V2233.46H689.3V2229.88H706.878L704.37 2233.23V2231.26C704.37 2229.52 704.105 2228.09 703.573 2226.95C703.058 2225.79 702.331 2224.93 701.394 2224.37C700.472 2223.8 699.402 2223.52 698.183 2223.52C696.98 2223.52 695.902 2223.82 694.948 2224.41C693.995 2225.01 693.245 2225.88 692.698 2227.04C692.152 2228.18 691.878 2229.59 691.878 2231.26V2233.23C691.878 2234.82 692.144 2236.19 692.675 2237.33C693.222 2238.45 693.995 2239.32 694.995 2239.93C695.995 2240.52 697.175 2240.82 698.534 2240.82C699.534 2240.82 700.417 2240.67 701.183 2240.38C701.948 2240.06 702.581 2239.66 703.081 2239.16C703.597 2238.64 703.956 2238.07 704.159 2237.45L704.23 2237.26H709.058L709.011 2237.52C708.808 2238.48 708.425 2239.41 707.862 2240.3C707.3 2241.2 706.566 2242 705.659 2242.72C704.769 2243.42 703.714 2243.98 702.495 2244.38C701.277 2244.79 699.917 2244.99 698.417 2244.99ZM732.247 2244.5V2233.79H721.161V2244.5H716.075V2219.84H721.161V2229.76H732.247V2219.84H737.333V2244.5H732.247ZM763.897 2219.84V2223.9H756.186V2244.5H751.1V2223.9H743.389V2219.84H763.897Z" fill="black"></path>
<path d="M132.828 2366V2382.5C132.828 2384.43 134.288 2385 136.089 2385H152.394M145.871 2422L116.522 2422C112.92 2422 110 2418.87 110 2415L110 2373C110 2369.13 112.92 2366 116.522 2366H136.115C136.369 2366 136.614 2366.1 136.799 2366.27L152.078 2380.6C152.28 2380.79 152.394 2381.05 152.394 2381.33L152.393 2415C152.393 2418.87 149.473 2422 145.871 2422Z" stroke="black" stroke-width="6" stroke-linecap="round" stroke-linejoin="round"></path>
<path d="M221.633 2396.45V2392H226.273C228.289 2392 229.898 2391.5 231.102 2390.5C232.305 2389.48 232.906 2388.17 232.906 2386.56V2386.52C232.906 2385.52 232.656 2384.66 232.156 2383.96C231.656 2383.24 230.93 2382.7 229.977 2382.32C229.023 2381.93 227.867 2381.73 226.508 2381.73C225.195 2381.73 224.047 2381.92 223.062 2382.3C222.094 2382.66 221.32 2383.18 220.742 2383.87C220.164 2384.54 219.812 2385.36 219.688 2386.33L219.641 2386.66H214.602L214.625 2386.35C214.734 2384.43 215.297 2382.78 216.312 2381.41C217.328 2380.03 218.719 2378.98 220.484 2378.24C222.25 2377.49 224.312 2377.12 226.672 2377.12C228.953 2377.12 230.953 2377.49 232.672 2378.24C234.391 2378.99 235.727 2380.03 236.68 2381.36C237.648 2382.69 238.133 2384.22 238.133 2385.95V2386C238.133 2387.88 237.555 2389.53 236.398 2390.97C235.242 2392.39 233.727 2393.32 231.852 2393.76V2393.95C234.117 2394.23 235.898 2395.12 237.195 2396.62C238.492 2398.12 239.141 2400 239.141 2402.27V2402.31C239.141 2404.17 238.594 2405.84 237.5 2407.3C236.422 2408.77 234.938 2409.94 233.047 2410.8C231.156 2411.64 229 2412.06 226.578 2412.06C224.078 2412.06 221.883 2411.67 219.992 2410.89C218.117 2410.11 216.633 2409.02 215.539 2407.61C214.461 2406.19 213.867 2404.55 213.758 2402.69L213.734 2402.41H218.891L218.914 2402.59C219.039 2403.62 219.422 2404.51 220.062 2405.24C220.703 2405.96 221.57 2406.51 222.664 2406.88C223.773 2407.26 225.078 2407.45 226.578 2407.45C228.031 2407.45 229.297 2407.23 230.375 2406.79C231.453 2406.35 232.289 2405.73 232.883 2404.91C233.477 2404.1 233.773 2403.15 233.773 2402.05V2402.01C233.773 2400.26 233.125 2398.9 231.828 2397.93C230.547 2396.95 228.742 2396.45 226.414 2396.45H221.633ZM252.756 2411.95C251.115 2411.95 249.678 2411.63 248.443 2411.01C247.209 2410.38 246.248 2409.51 245.561 2408.38C244.873 2407.26 244.529 2405.96 244.529 2404.49V2404.45C244.529 2403.01 244.889 2401.77 245.608 2400.74C246.326 2399.7 247.365 2398.87 248.725 2398.26C250.1 2397.65 251.756 2397.29 253.693 2397.18L263.022 2396.62V2400.18L254.373 2400.72C252.858 2400.81 251.686 2401.18 250.858 2401.82C250.045 2402.45 249.639 2403.28 249.639 2404.33V2404.38C249.639 2405.45 250.045 2406.3 250.858 2406.93C251.686 2407.55 252.779 2407.87 254.139 2407.87C255.326 2407.87 256.389 2407.62 257.326 2407.14C258.279 2406.66 259.029 2405.99 259.576 2405.15C260.123 2404.29 260.397 2403.33 260.397 2402.27V2394.93C260.397 2393.57 259.975 2392.51 259.131 2391.74C258.287 2390.96 257.076 2390.57 255.498 2390.57C254.045 2390.57 252.873 2390.88 251.983 2391.51C251.108 2392.13 250.561 2392.94 250.342 2393.92L250.295 2394.13H245.514L245.537 2393.88C245.662 2392.45 246.139 2391.18 246.967 2390.05C247.795 2388.91 248.943 2388.02 250.412 2387.36C251.881 2386.7 253.623 2386.38 255.639 2386.38C257.654 2386.38 259.397 2386.71 260.865 2387.38C262.334 2388.05 263.475 2389 264.287 2390.22C265.1 2391.44 265.506 2392.87 265.506 2394.51V2411.5H260.397V2407.61H260.303C259.818 2408.5 259.193 2409.27 258.428 2409.93C257.662 2410.57 256.795 2411.07 255.826 2411.43C254.873 2411.77 253.85 2411.95 252.756 2411.95ZM272.746 2411.5V2386.84H283.949C286.356 2386.84 288.246 2387.41 289.621 2388.53C290.996 2389.66 291.684 2391.2 291.684 2393.15V2393.2C291.684 2394.48 291.278 2395.63 290.465 2396.66C289.668 2397.68 288.676 2398.3 287.488 2398.54V2398.73C288.551 2398.87 289.473 2399.2 290.254 2399.71C291.051 2400.21 291.668 2400.86 292.106 2401.66C292.559 2402.45 292.785 2403.36 292.785 2404.38V2404.42C292.785 2405.86 292.434 2407.11 291.731 2408.17C291.028 2409.23 290.028 2410.05 288.731 2410.63C287.434 2411.21 285.887 2411.5 284.09 2411.5H272.746ZM277.785 2407.75H283.153C284.59 2407.75 285.684 2407.45 286.434 2406.86C287.184 2406.27 287.559 2405.38 287.559 2404.21V2404.16C287.559 2402.99 287.145 2402.12 286.317 2401.56C285.488 2400.98 284.246 2400.7 282.59 2400.7H277.785V2407.75ZM277.785 2397.02H282.379C283.817 2397.02 284.887 2396.75 285.59 2396.22C286.293 2395.69 286.645 2394.88 286.645 2393.78V2393.73C286.645 2392.7 286.324 2391.92 285.684 2391.39C285.043 2390.86 284.113 2390.59 282.895 2390.59H277.785V2397.02ZM306.424 2411.95C304.783 2411.95 303.346 2411.63 302.112 2411.01C300.877 2410.38 299.916 2409.51 299.229 2408.38C298.541 2407.26 298.198 2405.96 298.198 2404.49V2404.45C298.198 2403.01 298.557 2401.77 299.276 2400.74C299.994 2399.7 301.033 2398.87 302.393 2398.26C303.768 2397.65 305.424 2397.29 307.362 2397.18L316.69 2396.62V2400.18L308.041 2400.72C306.526 2400.81 305.354 2401.18 304.526 2401.82C303.713 2402.45 303.307 2403.28 303.307 2404.33V2404.38C303.307 2405.45 303.713 2406.3 304.526 2406.93C305.354 2407.55 306.448 2407.87 307.807 2407.87C308.994 2407.87 310.057 2407.62 310.994 2407.14C311.948 2406.66 312.698 2405.99 313.244 2405.15C313.791 2404.29 314.065 2403.33 314.065 2402.27V2394.93C314.065 2393.57 313.643 2392.51 312.799 2391.74C311.955 2390.96 310.744 2390.57 309.166 2390.57C307.713 2390.57 306.541 2390.88 305.651 2391.51C304.776 2392.13 304.229 2392.94 304.01 2393.92L303.963 2394.13H299.182L299.205 2393.88C299.33 2392.45 299.807 2391.18 300.635 2390.05C301.463 2388.91 302.612 2388.02 304.08 2387.36C305.549 2386.7 307.291 2386.38 309.307 2386.38C311.323 2386.38 313.065 2386.71 314.533 2387.38C316.002 2388.05 317.143 2389 317.955 2390.22C318.768 2391.44 319.174 2392.87 319.174 2394.51V2411.5H314.065V2407.61H313.971C313.487 2408.5 312.862 2409.27 312.096 2409.93C311.33 2410.57 310.463 2411.07 309.494 2411.43C308.541 2411.77 307.518 2411.95 306.424 2411.95ZM342.586 2411.5V2400.79H331.5V2411.5H326.414V2386.84H331.5V2396.76H342.586V2386.84H347.672V2411.5H342.586ZM373.756 2386.84V2390.9H366.045V2411.5H360.959V2390.9H353.248V2386.84H373.756ZM385.872 2411.95C384.231 2411.95 382.793 2411.63 381.559 2411.01C380.325 2410.38 379.364 2409.51 378.676 2408.38C377.989 2407.26 377.645 2405.96 377.645 2404.49V2404.45C377.645 2403.01 378.004 2401.77 378.723 2400.74C379.442 2399.7 380.481 2398.87 381.84 2398.26C383.215 2397.65 384.872 2397.29 386.809 2397.18L396.137 2396.62V2400.18L387.489 2400.72C385.973 2400.81 384.801 2401.18 383.973 2401.82C383.161 2402.45 382.754 2403.28 382.754 2404.33V2404.38C382.754 2405.45 383.161 2406.3 383.973 2406.93C384.801 2407.55 385.895 2407.87 387.254 2407.87C388.442 2407.87 389.504 2407.62 390.442 2407.14C391.395 2406.66 392.145 2405.99 392.692 2405.15C393.239 2404.29 393.512 2403.33 393.512 2402.27V2394.93C393.512 2393.57 393.09 2392.51 392.247 2391.74C391.403 2390.96 390.192 2390.57 388.614 2390.57C387.161 2390.57 385.989 2390.88 385.098 2391.51C384.223 2392.13 383.676 2392.94 383.458 2393.92L383.411 2394.13H378.629L378.653 2393.88C378.778 2392.45 379.254 2391.18 380.083 2390.05C380.911 2388.91 382.059 2388.02 383.528 2387.36C384.997 2386.7 386.739 2386.38 388.754 2386.38C390.77 2386.38 392.512 2386.71 393.981 2387.38C395.45 2388.05 396.59 2389 397.403 2390.22C398.215 2391.44 398.622 2392.87 398.622 2394.51V2411.5H393.512V2407.61H393.418C392.934 2408.5 392.309 2409.27 391.543 2409.93C390.778 2410.57 389.911 2411.07 388.942 2411.43C387.989 2411.77 386.965 2411.95 385.872 2411.95ZM409.846 2411.5H403.588L414.534 2397.93V2398.98L403.963 2386.84H409.987L418.635 2397.09H419.292V2386.84H424.284V2397.09H424.94L433.588 2386.84H439.588L429.042 2398.94V2397.88L440.01 2411.5H433.706L424.94 2400.44H424.284V2411.5H419.292V2400.44H418.635L409.846 2411.5ZM445.094 2411.5V2386.84H450.133V2404.07H452.594L449.079 2405.99L461.665 2386.84H466.68V2411.5H461.618V2394.2H459.18L462.673 2392.28L450.087 2411.5H445.094ZM492.764 2386.84V2390.9H485.053V2411.5H479.967V2390.9H472.257V2386.84H492.764ZM498.388 2411.5V2386.84H503.427V2404.07H505.888L502.372 2405.99L514.958 2386.84H519.973V2411.5H514.911V2394.2H512.473L515.966 2392.28L503.38 2411.5H498.388ZM541.954 2399.95V2395.54H550.626C552.892 2395.54 554.649 2394.95 555.899 2393.78C557.165 2392.59 557.798 2390.95 557.798 2388.86V2388.81C557.798 2386.69 557.165 2385.04 555.899 2383.87C554.649 2382.7 552.892 2382.11 550.626 2382.11H541.954V2377.68H551.938C554.157 2377.68 556.103 2378.15 557.774 2379.09C559.462 2380.01 560.782 2381.3 561.735 2382.98C562.688 2384.63 563.165 2386.56 563.165 2388.77V2388.81C563.165 2391.02 562.688 2392.96 561.735 2394.65C560.782 2396.32 559.462 2397.62 557.774 2398.56C556.103 2399.48 554.157 2399.95 551.938 2399.95H541.954ZM539.329 2411.5V2377.68H544.579V2411.5H539.329ZM569.702 2411.5V2377.68H581.632C584.991 2377.68 587.858 2378.34 590.233 2379.67C592.624 2380.98 594.452 2382.89 595.718 2385.39C596.999 2387.89 597.64 2390.92 597.64 2394.48V2394.53C597.64 2398.09 597.007 2401.15 595.741 2403.7C594.476 2406.23 592.647 2408.16 590.257 2409.51C587.882 2410.84 585.007 2411.5 581.632 2411.5H569.702ZM574.952 2406.95H581.14C583.53 2406.95 585.554 2406.48 587.21 2405.52C588.866 2404.57 590.124 2403.17 590.983 2401.33C591.843 2399.48 592.272 2397.23 592.272 2394.58V2394.53C592.272 2391.89 591.835 2389.66 590.96 2387.83C590.101 2385.98 588.843 2384.59 587.187 2383.66C585.546 2382.7 583.53 2382.23 581.14 2382.23H574.952V2406.95ZM604.575 2411.5V2377.68H625.693V2382.23H609.825V2392.91H624.357V2397.34H609.825V2411.5H604.575Z" fill="black"></path>
<path d="M157.099 2546.87C157.93 2548.31 157.441 2550.14 156.007 2550.97C154.573 2551.81 152.738 2551.32 151.907 2549.88L154.503 2548.38L157.099 2546.87ZM146.772 2554.56H143.772V2548.56H146.772V2551.56V2554.56ZM159.5 2551.56H162.5C162.5 2553.21 161.157 2554.56 159.5 2554.56V2551.56ZM156.5 2538.85V2535.85H162.5V2538.85H159.5H156.5ZM111.627 2552.68C111.005 2554.22 109.256 2554.96 107.72 2554.34C106.185 2553.71 105.444 2551.96 106.067 2550.43L108.847 2551.56L111.627 2552.68ZM108.067 2575.3C107.237 2573.87 107.726 2572.03 109.16 2571.2C110.593 2570.37 112.429 2570.86 113.259 2572.3L110.663 2573.8L108.067 2575.3ZM132.714 2586.51V2583.51V2586.51ZM118.395 2567.62H121.395V2573.62H118.395V2570.62V2567.62ZM105.667 2570.62H102.667C102.667 2568.97 104.01 2567.62 105.667 2567.62V2570.62ZM108.667 2583.33V2586.33H102.667V2583.33H105.667H108.667ZM153.539 2569.5C154.162 2567.96 155.911 2567.22 157.447 2567.84C158.982 2568.46 159.722 2570.21 159.1 2571.75L156.32 2570.62L153.539 2569.5ZM154.503 2548.38L151.907 2549.88C148.021 2543.17 140.763 2538.67 132.453 2538.67V2535.67V2532.67C142.987 2532.67 152.183 2538.39 157.099 2546.87L154.503 2548.38ZM146.772 2551.56V2548.56H159.5V2551.56V2554.56H146.772V2551.56ZM159.5 2551.56H156.5V2538.85H159.5H162.5V2551.56H159.5ZM132.453 2535.67V2538.67C123.031 2538.67 114.96 2544.46 111.627 2552.68L108.847 2551.56L106.067 2550.43C110.287 2540.02 120.508 2532.67 132.453 2532.67V2535.67ZM110.663 2573.8L113.259 2572.3C117.146 2579.01 124.404 2583.51 132.714 2583.51V2586.51V2589.51C122.179 2589.51 112.984 2583.79 108.067 2575.3L110.663 2573.8ZM118.395 2570.62V2573.62H105.667V2570.62V2567.62H118.395V2570.62ZM105.667 2570.62H108.667V2583.33H105.667H102.667V2570.62H105.667ZM132.714 2586.51V2583.51C142.136 2583.51 150.207 2577.72 153.539 2569.5L156.32 2570.62L159.1 2571.75C154.88 2582.16 144.658 2589.51 132.714 2589.51V2586.51Z" fill="black"></path>
<path d="M229.977 2579.06C226.711 2579.06 223.891 2578.36 221.516 2576.95C219.141 2575.53 217.312 2573.52 216.031 2570.91C214.75 2568.28 214.109 2565.18 214.109 2561.6V2561.55C214.109 2557.98 214.75 2554.88 216.031 2552.27C217.328 2549.66 219.164 2547.66 221.539 2546.25C223.914 2544.83 226.727 2544.12 229.977 2544.12C233.211 2544.12 236.016 2544.83 238.391 2546.25C240.766 2547.67 242.594 2549.69 243.875 2552.3C245.156 2554.89 245.797 2557.98 245.797 2561.55V2561.6C245.797 2565.18 245.156 2568.27 243.875 2570.88C242.594 2573.49 240.766 2575.51 238.391 2576.93C236.031 2578.35 233.227 2579.06 229.977 2579.06ZM229.977 2574.4C232.133 2574.4 233.992 2573.88 235.555 2572.83C237.117 2571.78 238.32 2570.3 239.164 2568.38C240.008 2566.45 240.43 2564.2 240.43 2561.6V2561.55C240.43 2558.95 240 2556.69 239.141 2554.78C238.297 2552.86 237.086 2551.38 235.508 2550.35C233.945 2549.3 232.102 2548.78 229.977 2548.78C227.836 2548.78 225.977 2549.3 224.398 2550.33C222.836 2551.36 221.625 2552.84 220.766 2554.76C219.906 2556.66 219.477 2558.93 219.477 2561.55V2561.6C219.477 2564.21 219.906 2566.48 220.766 2568.4C221.625 2570.32 222.836 2571.8 224.398 2572.85C225.961 2573.88 227.82 2574.4 229.977 2574.4ZM268.717 2578.5V2567.79H257.631V2578.5H252.545V2553.84H257.631V2563.76H268.717V2553.84H273.803V2578.5H268.717ZM291.754 2578.99C289.395 2578.99 287.332 2578.48 285.567 2577.45C283.817 2576.4 282.457 2574.92 281.488 2573.02C280.52 2571.09 280.035 2568.81 280.035 2566.17V2566.12C280.035 2563.5 280.52 2561.23 281.488 2559.33C282.473 2557.42 283.84 2555.95 285.59 2554.92C287.356 2553.89 289.402 2553.38 291.731 2553.38C294.074 2553.38 296.121 2553.89 297.871 2554.92C299.637 2555.94 301.004 2557.4 301.973 2559.3C302.957 2561.21 303.449 2563.48 303.449 2566.12V2566.17C303.449 2568.83 302.957 2571.11 301.973 2573.02C301.004 2574.92 299.645 2576.4 297.895 2577.45C296.145 2578.48 294.098 2578.99 291.754 2578.99ZM291.777 2574.73C293.09 2574.73 294.231 2574.39 295.199 2573.72C296.168 2573.05 296.918 2572.08 297.449 2570.81C297.981 2569.53 298.246 2567.98 298.246 2566.17V2566.12C298.246 2564.33 297.981 2562.8 297.449 2561.53C296.918 2560.25 296.16 2559.28 295.176 2558.62C294.192 2557.95 293.043 2557.62 291.731 2557.62C290.434 2557.62 289.293 2557.95 288.309 2558.62C287.34 2559.3 286.582 2560.27 286.035 2561.53C285.488 2562.8 285.215 2564.33 285.215 2566.12V2566.17C285.215 2567.98 285.481 2569.53 286.012 2570.81C286.559 2572.08 287.324 2573.05 288.309 2573.72C289.293 2574.39 290.449 2574.73 291.777 2574.73ZM309.729 2578.5V2553.84H320.932C323.338 2553.84 325.229 2554.41 326.604 2555.53C327.979 2556.66 328.666 2558.2 328.666 2560.15V2560.2C328.666 2561.48 328.26 2562.63 327.448 2563.66C326.651 2564.68 325.658 2565.3 324.471 2565.54V2565.73C325.533 2565.87 326.455 2566.2 327.237 2566.71C328.033 2567.21 328.651 2567.86 329.088 2568.66C329.541 2569.45 329.768 2570.36 329.768 2571.38V2571.42C329.768 2572.86 329.416 2574.11 328.713 2575.17C328.01 2576.23 327.01 2577.05 325.713 2577.63C324.416 2578.21 322.869 2578.5 321.073 2578.5H309.729ZM314.768 2574.75H320.135C321.573 2574.75 322.666 2574.45 323.416 2573.86C324.166 2573.27 324.541 2572.38 324.541 2571.21V2571.16C324.541 2569.99 324.127 2569.12 323.299 2568.56C322.471 2567.98 321.229 2567.7 319.573 2567.7H314.768V2574.75ZM314.768 2564.02H319.362C320.799 2564.02 321.869 2563.75 322.573 2563.22C323.276 2562.69 323.627 2561.88 323.627 2560.78V2560.73C323.627 2559.7 323.307 2558.92 322.666 2558.39C322.026 2557.86 321.096 2557.59 319.877 2557.59H314.768V2564.02ZM336.164 2578.5V2553.84H341.203V2571.07H343.664L340.149 2572.99L352.735 2553.84H357.75V2578.5H352.688V2561.2H350.25L353.743 2559.28L341.157 2578.5H336.164ZM383.834 2553.84V2557.9H376.123V2578.5H371.038V2557.9H363.327V2553.84H383.834ZM389.458 2578.5V2553.84H394.497V2571.07H396.958L393.442 2572.99L406.028 2553.84H411.043V2578.5H405.981V2561.2H403.543L407.036 2559.28L394.45 2578.5H389.458ZM432.415 2585.18H427.727V2574.45H429.719C430.626 2573.87 431.298 2572.91 431.735 2571.56C432.188 2570.22 432.469 2568.72 432.579 2567.06L433.469 2553.84H451.469V2574.45H455.29V2585.18H450.602V2578.5H432.415V2585.18ZM446.36 2574.45V2557.92H437.852L437.173 2567.27C437.063 2568.74 436.852 2570.09 436.54 2571.3C436.227 2572.51 435.774 2573.52 435.18 2574.33V2574.45H446.36ZM471.225 2578.99C468.866 2578.99 466.803 2578.48 465.038 2577.45C463.288 2576.4 461.928 2574.92 460.96 2573.02C459.991 2571.09 459.507 2568.81 459.507 2566.17V2566.12C459.507 2563.5 459.991 2561.23 460.96 2559.33C461.944 2557.42 463.311 2555.95 465.061 2554.92C466.827 2553.89 468.874 2553.38 471.202 2553.38C473.546 2553.38 475.592 2553.89 477.342 2554.92C479.108 2555.94 480.475 2557.4 481.444 2559.3C482.428 2561.21 482.921 2563.48 482.921 2566.12V2566.17C482.921 2568.83 482.428 2571.11 481.444 2573.02C480.475 2574.92 479.116 2576.4 477.366 2577.45C475.616 2578.48 473.569 2578.99 471.225 2578.99ZM471.249 2574.73C472.561 2574.73 473.702 2574.39 474.671 2573.72C475.639 2573.05 476.389 2572.08 476.921 2570.81C477.452 2569.53 477.717 2567.98 477.717 2566.17V2566.12C477.717 2564.33 477.452 2562.8 476.921 2561.53C476.389 2560.25 475.632 2559.28 474.647 2558.62C473.663 2557.95 472.514 2557.62 471.202 2557.62C469.905 2557.62 468.764 2557.95 467.78 2558.62C466.811 2559.3 466.053 2560.27 465.507 2561.53C464.96 2562.8 464.686 2564.33 464.686 2566.12V2566.17C464.686 2567.98 464.952 2569.53 465.483 2570.81C466.03 2572.08 466.796 2573.05 467.78 2573.72C468.764 2574.39 469.921 2574.73 471.249 2574.73ZM495.177 2567.51H494.286V2578.5H489.2V2553.84H494.286V2563.99H495.177L504.106 2553.84H510.083L499.466 2565.68V2565.14L510.505 2578.5H504.223L495.177 2567.51ZM518.12 2586.73C517.636 2586.73 517.151 2586.7 516.667 2586.66C516.182 2586.61 515.784 2586.55 515.472 2586.49V2582.53C515.659 2582.56 515.893 2582.59 516.175 2582.62C516.472 2582.67 516.792 2582.7 517.136 2582.7C518.339 2582.7 519.292 2582.49 519.995 2582.09C520.714 2581.68 521.276 2580.88 521.682 2579.7L522.104 2578.52L513.128 2553.84H518.636L525.175 2575.01L524.284 2573.91H525.526L524.636 2575.01L531.198 2553.84H536.565L527.378 2579.62C526.768 2581.33 526.05 2582.7 525.222 2583.75C524.409 2584.8 523.425 2585.55 522.268 2586.02C521.128 2586.49 519.745 2586.73 518.12 2586.73ZM546.782 2578.5H541.837V2553.84H548.259L556.11 2571.89H556.298L564.196 2553.84H570.454V2578.5H565.509V2561.39H565.321L557.985 2577.54H554.282L546.946 2561.39H546.782V2578.5ZM588.312 2578.99C585.905 2578.99 583.827 2578.48 582.077 2577.45C580.343 2576.4 579.007 2574.92 578.069 2573.02C577.147 2571.09 576.687 2568.84 576.687 2566.24V2566.22C576.687 2563.66 577.155 2561.41 578.093 2559.49C579.03 2557.55 580.351 2556.05 582.054 2554.99C583.757 2553.91 585.757 2553.38 588.054 2553.38C590.366 2553.38 592.351 2553.89 594.007 2554.92C595.679 2555.94 596.968 2557.38 597.874 2559.26C598.78 2561.12 599.233 2563.28 599.233 2565.75V2567.46H579.194V2563.88H596.772L594.265 2567.23V2565.26C594.265 2563.52 593.999 2562.09 593.468 2560.95C592.952 2559.79 592.226 2558.93 591.288 2558.37C590.366 2557.8 589.296 2557.52 588.077 2557.52C586.874 2557.52 585.796 2557.82 584.843 2558.41C583.89 2559.01 583.14 2559.88 582.593 2561.04C582.046 2562.18 581.772 2563.59 581.772 2565.26V2567.23C581.772 2568.82 582.038 2570.19 582.569 2571.33C583.116 2572.45 583.89 2573.32 584.89 2573.93C585.89 2574.52 587.069 2574.82 588.429 2574.82C589.429 2574.82 590.312 2574.67 591.077 2574.38C591.843 2574.06 592.476 2573.66 592.976 2573.16C593.491 2572.64 593.851 2572.07 594.054 2571.45L594.124 2571.26H598.952L598.905 2571.52C598.702 2572.48 598.319 2573.41 597.757 2574.3C597.194 2575.2 596.46 2576 595.554 2576.72C594.663 2577.42 593.608 2577.98 592.39 2578.38C591.171 2578.79 589.812 2578.99 588.312 2578.99ZM621.661 2578.5V2567.79H610.575V2578.5H605.489V2553.84H610.575V2563.76H621.661V2553.84H626.747V2578.5H621.661ZM652.831 2553.84V2557.9H645.12V2578.5H640.034V2557.9H632.323V2553.84H652.831Z" fill="black"></path>
</svg>
